<svg width="1300" height="860" viewBox="0 0 1300 860" fill="none" xmlns="http://www.w3.org/2000/svg">
<g clip-path="url(#clip0)">
<rect width="1300" height="860" fill="url(#paint0_linear)"/>
<path opacity="0.07" d="M112.144 528.341C130.434 517.69 143.683 517.402 151.891 527.478C160.1 537.409 164.132 554.249 164.132 577.997V705.952C164.132 730.276 166.437 750.426 170.901 766.403C175.365 782.955 182.998 794.757 193.511 801.666C203.736 808.718 217.561 810.59 235.13 807.279C252.268 804.113 273.725 795.189 299.36 780.364L311.601 773.311V672.56L296.335 681.34C278.046 691.991 265.805 693.286 259.612 685.514C253.132 678.029 249.819 662.341 249.819 638.592V525.894C249.819 496.532 246.939 473.36 241.179 456.232C235.418 439.248 224.041 428.309 206.904 423.416C224.041 398.803 235.418 374.767 241.179 351.162C246.939 327.558 249.675 301.074 249.675 271.712V159.015C249.675 135.266 252.988 115.979 259.468 100.866C265.517 86.0416 277.758 73.3756 296.191 62.7248L311.457 53.945V-46.8066L299.216 -39.754C273.437 -24.7852 251.98 -9.09676 234.986 7.59922C217.417 24.4391 203.592 42.4305 193.367 61.2854C182.71 80.4283 175.221 100.866 170.757 122.6C166.293 143.758 163.988 166.499 163.988 190.823V318.778C163.988 342.526 159.956 364.116 151.747 383.403C143.539 402.833 130.29 417.802 112 428.309L112.144 528.341Z" fill="url(#paint1_linear)"/>
<path opacity="0.07" d="M576.583 157.719C558.294 168.37 545.045 168.657 536.836 158.582C528.628 148.651 524.595 131.811 524.595 108.063V-19.892C524.595 -44.2164 522.291 -64.3667 517.827 -80.343C513.362 -96.895 506.018 -108.841 495.793 -115.894C485.136 -122.803 471.311 -124.674 454.173 -121.507C436.604 -118.197 415.002 -109.129 389.368 -94.3043L377.127 -87.2517V13.4999L392.392 4.72015C410.682 -5.93074 423.211 -7.37004 429.691 0.114365C435.74 7.88663 438.908 23.5751 438.908 47.3237V160.022C438.908 189.383 441.788 212.556 447.549 229.684C453.309 246.668 464.686 257.607 481.824 262.5C464.686 287.113 453.309 311.149 447.549 334.754C441.788 358.358 439.052 384.842 439.052 414.204V526.901C439.052 550.65 436.028 569.937 429.835 584.762C423.355 599.874 410.826 612.684 392.536 623.191L377.271 631.971V732.723L389.512 725.67C415.146 710.845 436.748 695.013 454.317 678.173C471.455 661.477 485.28 643.629 495.937 624.487C506.162 605.632 513.506 585.337 517.971 563.46C522.435 542.302 524.739 519.417 524.739 495.237V367.282C524.739 343.533 528.772 321.944 536.98 302.657C545.189 283.226 558.438 268.258 576.728 257.751L576.583 157.719Z" fill="url(#paint2_linear)"/>
<path opacity="0.4" d="M169.749 571.52C188.039 560.869 201.288 560.581 209.497 570.656C217.705 580.587 221.738 597.427 221.738 621.176V749.131C221.738 773.455 224.042 793.605 228.506 809.582C232.971 826.134 240.603 837.936 251.116 844.845C261.341 851.897 275.166 853.768 292.736 850.458C309.873 847.291 331.331 838.368 356.965 823.543L369.206 816.49V715.739L353.941 724.518C335.651 735.169 323.41 736.465 317.218 728.692C310.737 721.208 307.425 705.519 307.425 681.771V569.073C307.425 539.711 304.545 516.538 298.784 499.41C293.024 482.427 281.647 471.488 264.509 466.594C281.647 441.982 293.024 417.946 298.784 394.341C304.545 370.736 307.281 344.253 307.281 314.891V202.193C307.281 178.445 310.593 159.158 317.074 144.045C323.122 129.22 335.363 116.554 353.797 105.903L369.062 97.1237V-3.62793L356.821 3.42469C331.187 18.2496 309.729 33.938 292.592 50.634C275.022 67.4739 261.197 85.4653 250.972 104.32C240.315 123.463 232.827 143.901 228.362 165.635C223.898 186.937 221.594 209.678 221.594 234.002V361.956C221.594 385.705 217.561 407.295 209.353 426.581C201.144 445.868 188.039 460.981 169.605 471.488L169.749 571.52Z" fill="url(#paint3_linear)"/>
<path opacity="0.4" d="M634.188 200.897C615.899 211.548 602.649 211.836 594.441 201.761C586.232 191.83 582.2 174.99 582.2 151.241V23.2867C582.2 -1.03763 579.896 -21.188 575.431 -37.1643C570.967 -53.7163 563.622 -65.6626 553.397 -72.7152C542.74 -79.6239 528.915 -81.495 511.778 -78.3285C494.208 -75.0181 472.607 -65.9505 446.972 -51.1256L434.731 -44.073V56.6787L449.997 47.8989C468.286 37.248 480.815 35.8087 487.296 43.2931C493.344 51.0654 496.513 66.7538 496.513 90.5024V203.2C496.513 232.562 499.393 255.735 505.153 272.863C510.914 289.847 522.291 300.785 539.428 305.679C522.291 330.291 510.914 354.328 505.153 377.932C499.393 401.537 496.657 428.02 496.657 457.382V570.08C496.657 593.829 493.632 613.116 487.44 627.94C480.959 643.053 468.43 655.863 450.141 666.37L434.875 675.15V775.901L447.116 768.849C472.751 754.024 494.352 738.191 511.922 721.352C529.059 704.656 542.884 686.808 553.541 667.665C563.766 648.81 571.111 628.516 575.575 606.639C580.04 585.481 582.344 562.596 582.344 538.415V410.461C582.344 386.712 586.376 365.123 594.585 345.836C602.793 326.405 616.043 311.436 634.332 300.929L634.188 200.897Z" fill="url(#paint4_linear)"/>
<path opacity="0.15" d="M953.894 -105.388L707.777 36.6721L707.921 625.781L954.038 483.721L953.894 -105.388Z" fill="url(#paint5_linear)"/>
<path d="M1000.12 -14.8555L804.41 98.1303V152.248L1000.12 39.2625V-14.8555Z" fill="white"/>
<path opacity="0.15" d="M923.508 220.616L735.429 329.14V413.484L923.508 304.96V220.616Z" fill="white"/>
<path opacity="0.15" d="M923.652 118.568L735.284 227.236V246.811L923.652 138.143V118.568Z" fill="white"/>
<path opacity="0.15" d="M923.652 156.855L760.774 250.842V270.417L923.652 176.43V156.855Z" fill="white"/>
<path opacity="0.2" d="M953.894 -105.388L707.777 36.6721V115.69L953.894 -26.3696V-105.388Z" fill="url(#paint6_linear)"/>
<path opacity="0.15" d="M651.469 440.83L405.353 582.89L405.497 1172L651.613 1029.94L651.469 440.83Z" fill="url(#paint7_linear)"/>
<path d="M557.717 612.251L362.005 725.237V779.355L557.717 666.369V612.251Z" fill="white" fill-opacity="0.8"/>
<path opacity="0.15" d="M621.083 668.24L432.859 776.908V861.108L621.083 752.44V668.24Z" fill="white"/>
<path opacity="0.15" d="M621.227 788.567L432.859 897.235V916.81L621.227 808.286V788.567Z" fill="white"/>
<path opacity="0.15" d="M621.227 823.974L458.35 917.96V937.535L621.227 843.548V823.974Z" fill="white"/>
<path opacity="0.2" d="M651.469 440.83L405.353 582.89V661.908L651.469 519.848V440.83Z" fill="url(#paint8_linear)"/>
<path opacity="0.2" d="M589.976 516.393C589.976 528.339 597.032 533.953 605.673 529.059C614.314 524.021 621.226 510.348 621.226 498.402C621.226 486.456 614.17 480.842 605.529 485.736C596.888 490.63 589.976 504.447 589.976 516.393Z" fill="white"/>
<path opacity="0.3" d="M693.953 522.438L1122.53 275.165L1122.39 498.402L731.684 723.942L693.953 779.931V522.438Z" fill="url(#paint9_linear)"/>
<path opacity="0.15" d="M804.122 513.227L898.018 459.109V478.684L804.122 532.802V513.227Z" fill="white"/>
<path opacity="0.15" d="M804.122 552.521L1036.7 418.377V437.952L804.122 572.095V552.521Z" fill="white"/>
<path opacity="0.15" d="M804.122 591.813L1084.66 429.891V449.465L804.122 611.387V591.813Z" fill="white"/>
<path d="M781.08 547.051C781.08 565.474 770.135 586.632 756.742 594.404C743.349 602.177 732.404 593.541 732.404 575.118C732.404 556.694 743.349 535.537 756.742 527.764C770.135 519.992 781.08 528.628 781.08 547.051Z" fill="white" fill-opacity="0.8"/>
<path opacity="0.15" d="M1080.19 118.568L1136.93 85.7522V66.6094L1080.19 99.4256C1075.58 102.16 1068.82 107.486 1063.06 115.834C1056.86 124.757 1052.4 135.984 1052.4 148.218C1052.4 161.748 1055.85 169.376 1062.34 171.679C1068.53 173.694 1075.73 170.24 1080.19 167.649L1103.52 154.119L1103.67 153.975C1105.68 152.824 1108.85 151.673 1111.3 152.392C1113.32 152.968 1115.76 155.127 1115.76 162.611C1115.76 170.096 1113.46 174.701 1111.44 177.436C1109 180.891 1105.83 183.337 1103.81 184.345L1103.52 184.489L1032.09 225.653V244.796L1103.09 203.776C1107.99 201.185 1115.04 195.859 1121.09 187.367C1127.72 178.012 1132.33 166.21 1132.33 152.968C1132.33 139.87 1127.72 133.105 1121.24 131.234C1115.19 129.507 1108.13 132.098 1103.23 134.977L1080.05 148.362C1076.74 150.233 1074.14 151.097 1072.56 150.521C1071.26 150.089 1068.96 148.218 1068.96 138.575C1068.96 132.242 1070.98 128.212 1072.99 125.333C1075.3 122.167 1078.32 119.576 1080.19 118.568Z" fill="white"/>
<path d="M1120.08 87.7662C1120.08 104.174 1129.73 111.803 1141.54 105.038C1153.35 98.2731 1163 79.4182 1163 63.01C1163 46.6019 1153.35 38.9736 1141.54 45.7383C1129.59 52.647 1120.08 71.502 1120.08 87.7662Z" fill="white"/>
<path d="M1006.31 246.092C1006.31 262.5 1015.96 270.273 1027.77 263.364C1039.58 256.455 1049.23 237.744 1049.23 221.336C1049.23 204.928 1039.58 197.156 1027.77 204.064C1015.82 210.973 1006.31 229.828 1006.31 246.092Z" fill="white"/>
<path opacity="0.2" d="M853.229 746.54C844.588 751.577 837.676 763.524 837.676 773.599V817.498L808.586 834.194C799.945 839.231 793.032 851.178 793.032 861.253C793.032 871.184 800.089 875.214 808.586 870.321L837.676 853.625V897.524C837.676 907.455 844.732 911.485 853.229 906.591C861.87 901.554 868.783 889.607 868.783 879.532V835.633L897.873 818.937C906.514 813.9 913.426 801.953 913.426 791.878C913.426 781.947 906.37 777.917 897.873 782.81L868.783 799.507V755.608C868.783 745.532 861.87 741.502 853.229 746.54Z" fill="url(#paint10_linear)"/>
</g>
<defs>
<linearGradient id="paint0_linear" x1="79" y1="207" x2="1081" y2="860" gradientUnits="userSpaceOnUse">
<stop stop-color="#069F84"/>
<stop offset="1" stop-color="#34DDCE"/>
</linearGradient>
<linearGradient id="paint1_linear" x1="21.4968" y1="-17.7057" x2="376.374" y2="597.697" gradientUnits="userSpaceOnUse">
<stop stop-color="white"/>
<stop offset="1" stop-color="white" stop-opacity="0"/>
</linearGradient>
<linearGradient id="paint2_linear" x1="192.278" y1="-118.849" x2="547.156" y2="496.553" gradientUnits="userSpaceOnUse">
<stop stop-color="white"/>
<stop offset="1" stop-color="white" stop-opacity="0"/>
</linearGradient>
<linearGradient id="paint3_linear" x1="79.1029" y1="25.4727" x2="433.98" y2="640.875" gradientUnits="userSpaceOnUse">
<stop stop-color="white"/>
<stop offset="1" stop-color="white" stop-opacity="0"/>
</linearGradient>
<linearGradient id="paint4_linear" x1="249.883" y1="-75.6704" x2="604.76" y2="539.732" gradientUnits="userSpaceOnUse">
<stop stop-color="white"/>
<stop offset="1" stop-color="white" stop-opacity="0"/>
</linearGradient>
<linearGradient id="paint5_linear" x1="703.268" y1="39.1955" x2="938.195" y2="446.437" gradientUnits="userSpaceOnUse">
<stop stop-color="white"/>
<stop offset="1" stop-color="white" stop-opacity="0"/>
</linearGradient>
<linearGradient id="paint6_linear" x1="869.407" y1="-104.185" x2="794.577" y2="108.107" gradientUnits="userSpaceOnUse">
<stop stop-color="white"/>
<stop offset="1" stop-color="white" stop-opacity="0"/>
</linearGradient>
<linearGradient id="paint7_linear" x1="400.855" y1="585.449" x2="635.782" y2="992.691" gradientUnits="userSpaceOnUse">
<stop stop-color="white"/>
<stop offset="1" stop-color="white" stop-opacity="0"/>
</linearGradient>
<linearGradient id="paint8_linear" x1="566.993" y1="442.069" x2="492.163" y2="654.361" gradientUnits="userSpaceOnUse">
<stop stop-color="white"/>
<stop offset="1" stop-color="white" stop-opacity="0"/>
</linearGradient>
<linearGradient id="paint9_linear" x1="787.471" y1="433.103" x2="1008.65" y2="606.379" gradientUnits="userSpaceOnUse">
<stop stop-color="white"/>
<stop offset="1" stop-color="white" stop-opacity="0"/>
</linearGradient>
<linearGradient id="paint10_linear" x1="823.145" y1="802.619" x2="898.536" y2="862.111" gradientUnits="userSpaceOnUse">
<stop stop-color="white"/>
<stop offset="1" stop-color="white" stop-opacity="0"/>
</linearGradient>
<clipPath id="clip0">
<rect width="1300" height="860" fill="white"/>
</clipPath>
</defs>
</svg>
